<svg xmlns="http://www.w3.org/2000/svg" viewBox="0 21.850000381469727 19.100000381469727 25.350000381469727" data-asc="0.94" width="19.100000381469727" height="25.350000381469727"><defs/><g><g fill="#000000"><g transform="translate(0, 0)"><path d="M0.55 24.70Q6 22 10.10 21.85Q13.35 21.85 15.13 22.67Q16.90 23.50 18 24.97Q19.10 26.45 19.10 29.10L19.10 47L15.85 47L15.85 45.10Q9 47.20 7.05 47.20Q6.95 47.20 6.90 47.20Q2.40 47.20 0.75 44.45Q0.15 43.45 0.08 42.50Q0 41.55 0 40.90Q0 39.10 1.40 37.67Q2.80 36.25 4.75 35.75Q8.05 34.90 15.85 34.25L15.85 30.20Q15.85 24.75 10.15 24.75Q6.15 24.75 1.45 27.10L0.55 24.70M3.05 41.30Q3.05 44.90 8 44.90Q11.95 44.90 15.85 43.20L15.85 36.05Q8.05 37.15 6.20 37.75Q3.05 38.75 3.05 41.30Z"/></g></g></g></svg>