<svg xmlns="http://www.w3.org/2000/svg" viewBox="0.05000000447034836 21.799999237060547 24 37.70000076293945" data-asc="0.94" width="24" height="37.70000076293945"><defs/><g><g fill="#000000"><g transform="translate(0, 0)"><path d="M5.10 37.35Q1.40 35.50 1.40 30.40Q1.40 26.20 4.30 24Q7.20 21.80 11.70 21.80Q12.90 21.80 14.65 22.05L24.05 21.80L23.95 23.70L18.50 23.70Q21.25 25.75 21.25 29.88Q21.25 34 18.50 36.23Q15.75 38.45 11.40 38.45Q8.60 38.45 6.75 37.95Q5.80 38.85 5.80 40.05Q5.80 41.75 7.68 42.50Q9.55 43.25 12.10 43.60Q17.75 44.35 20.25 45.70Q23.85 47.70 23.85 51.85Q23.85 56 19.90 58Q16.90 59.50 12.65 59.50Q8.40 59.50 6.10 58.85Q0.05 57.10 0.05 52.35Q0.05 47.60 5.40 44.30Q3.30 42.75 3.30 40.70Q3.30 38.65 5.10 37.35M20.60 51.80Q20.60 48.55 16.30 47.30Q15.10 46.95 12 46.45Q8.90 45.95 7.15 45.25Q3.30 48.45 3.30 51.45Q3.30 52.75 3.70 53.60Q4.10 54.45 5.10 55.10Q7.30 56.60 11.80 56.60Q17.70 56.60 19.80 54.10Q20.60 53.15 20.60 51.80M17.85 29.75Q17.85 24.45 11.55 24.45Q8.55 24.45 6.60 25.82Q4.65 27.20 4.65 30.02Q4.65 32.85 6.05 34.33Q7.45 35.80 10.78 35.80Q14.10 35.80 15.98 34.20Q17.85 32.60 17.85 29.75Z"/></g></g></g></svg>