 <svg version="1.0" xmlns="http://www.w3.org/2000/svg"  width="300.000000pt" height="300.000000pt" viewBox="0 0 300.000000 300.000000"  preserveAspectRatio="xMidYMid meet">  <g transform="translate(0.000000,300.000000) scale(0.100000,-0.100000)" fill="#FFFFFF" stroke="none"> <path d="M1395 2285 c-49 -29 -101 -60 -115 -68 -85 -48 -276 -162 -280 -167 -3 -3 -39 -25 -80 -48 -130 -75 -117 -39 -124 -343 -3 -145 -6 -268 -6 -274 -2 -23 11 -241 16 -257 3 -9 104 -78 226 -154 121 -75 242 -151 269 -168 195 -126 198 -127 221 -115 28 15 117 71 175 111 23 15 44 28 48 28 3 0 21 11 38 24 18 13 113 74 211 135 98 62 187 122 197 134 16 20 18 51 19 403 l0 380 -27 26 c-16 14 -57 42 -93 63 -36 22 -121 73 -190 115 -69 42 -132 79 -140 83 -8 4 -28 16 -45 26 -113 71 -202 121 -215 121 -8 -1 -55 -25 -105 -55z m450 -170 l334 -200 1 -390 0 -390 -338 -214 -337 -213 -31 18 c-17 11 -171 107 -342 214 l-312 195 0 390 0 390 338 202 c185 111 340 201 344 200 4 -1 158 -92 343 -202z"/> <path d="M1485 2191 c-6 -5 -129 -80 -275 -166 -146 -86 -268 -160 -272 -164 -5 -4 -11 -134 -15 -289 l-6 -282 390 0 390 0 21 23 c46 48 48 132 6 178 -16 17 -34 19 -208 19 -213 0 -248 8 -299 69 -31 38 -41 81 -35 160 5 70 38 120 98 151 37 19 59 20 372 20 l332 0 -175 103 c-95 57 -205 122 -243 145 -78 48 -69 45 -81 33z m124 -87 c53 -31 113 -67 133 -80 21 -13 42 -24 48 -24 5 0 10 -4 10 -9 0 -5 13 -14 30 -21 76 -32 54 -35 -233 -36 -317 0 -326 -2 -391 -74 -52 -58 -69 -139 -45 -224 13 -48 80 -122 122 -135 18 -5 115 -12 217 -14 102 -2 192 -7 201 -11 33 -15 30 -129 -3 -147 -17 -9 -462 -16 -696 -10 l-52 1 0 260 1 260 37 24 c36 23 287 172 347 206 17 10 57 33 90 53 33 20 66 36 74 37 7 0 57 -25 110 -56z"/> <path d="M1309 1790 c-45 -26 -48 -127 -6 -154 16 -10 75 -16 212 -21 105 -4 204 -11 222 -16 42 -13 100 -79 109 -124 3 -19 4 -64 2 -99 -5 -82 -38 -134 -105 -167 -48 -24 -49 -24 -425 -24 -208 0 -378 -1 -378 -2 0 0 21 -14 48 -29 26 -15 151 -94 279 -175 l231 -147 229 142 c125 78 256 160 291 182 l62 39 0 296 0 296 -52 7 c-84 10 -701 6 -719 -4z m735 -29 c10 -8 12 -46 10 -148 -1 -76 -4 -199 -5 -274 l-2 -136 -31 -19 c-17 -9 -121 -75 -231 -144 -110 -70 -219 -138 -242 -151 l-43 -24 -52 29 c-29 17 -80 48 -113 71 -33 23 -111 72 -172 109 -62 38 -113 72 -113 76 0 4 142 8 315 8 209 1 329 5 355 13 198 60 215 365 25 450 -33 15 -72 18 -225 20 -207 2 -220 6 -220 66 0 37 15 58 46 65 42 10 686 -1 698 -11z"/> </g> </svg> 