<svg xmlns="http://www.w3.org/2000/svg" viewBox="0 10.75 160.75 48.75" data-asc="0.94" width="160.75" height="48.75"><defs/><g><g fill="#000000"><g transform="translate(0, 0)"><path d="M17.95 26.90L11.25 47L8.25 47L0 22L3.65 21.75L10 42.90L16.50 22L19.65 21.75L25.25 42.95L32.60 22L36.45 21.75L26.85 47L23.85 47L17.95 26.90ZM43.30 21.75L43.30 47L40.05 47L40.05 22L43.30 21.75M41.55 15.30Q41.55 15.30 41.05 15.30Q40.55 15.30 40.02 14.65Q39.50 14 39.50 13Q39.50 12 40.08 11.38Q40.65 10.75 41.65 10.75Q42.65 10.75 43.27 11.38Q43.90 12 43.90 13.10Q43.90 14.20 43.23 14.75Q42.55 15.30 41.55 15.30ZM52.15 37.35Q48.45 35.50 48.45 30.40Q48.45 26.20 51.35 24Q54.25 21.80 58.75 21.80Q59.95 21.80 61.70 22.05L71.10 21.80L71 23.70L65.55 23.70Q68.30 25.75 68.30 29.88Q68.30 34 65.55 36.23Q62.80 38.45 58.45 38.45Q55.65 38.45 53.80 37.95Q52.85 38.85 52.85 40.05Q52.85 41.75 54.72 42.50Q56.60 43.25 59.15 43.60Q64.80 44.35 67.30 45.70Q70.90 47.70 70.90 51.85Q70.90 56 66.95 58Q63.95 59.50 59.70 59.50Q55.45 59.50 53.15 58.85Q47.10 57.10 47.10 52.35Q47.10 47.60 52.45 44.30Q50.35 42.75 50.35 40.70Q50.35 38.65 52.15 37.35M67.65 51.80Q67.65 48.55 63.35 47.30Q62.15 46.95 59.05 46.45Q55.95 45.95 54.20 45.25Q50.35 48.45 50.35 51.45Q50.35 52.75 50.75 53.60Q51.15 54.45 52.15 55.10Q54.35 56.60 58.85 56.60Q64.75 56.60 66.85 54.10Q67.65 53.15 67.65 51.80M64.90 29.75Q64.90 24.45 58.60 24.45Q55.60 24.45 53.65 25.82Q51.70 27.20 51.70 30.02Q51.70 32.85 53.10 34.33Q54.50 35.80 57.82 35.80Q61.15 35.80 63.02 34.20Q64.90 32.60 64.90 29.75ZM93.55 26.90L86.85 47L83.85 47L75.60 22L79.25 21.75L85.60 42.90L92.10 22L95.25 21.75L100.85 42.95L108.20 22L112.05 21.75L102.45 47L99.45 47L93.55 26.90ZM115.15 24.70Q120.60 22 124.70 21.85Q127.95 21.85 129.72 22.67Q131.50 23.50 132.60 24.97Q133.70 26.45 133.70 29.10L133.70 47L130.45 47L130.45 45.10Q123.60 47.20 121.65 47.20Q121.55 47.20 121.50 47.20Q117 47.20 115.35 44.45Q114.75 43.45 114.67 42.50Q114.60 41.55 114.60 40.90Q114.60 39.10 116 37.67Q117.40 36.25 119.35 35.75Q122.65 34.90 130.45 34.25L130.45 30.20Q130.45 24.75 124.75 24.75Q120.75 24.75 116.05 27.10L115.15 24.70M117.65 41.30Q117.65 44.90 122.60 44.90Q126.55 44.90 130.45 43.20L130.45 36.05Q122.65 37.15 120.80 37.75Q117.65 38.75 117.65 41.30ZM141.80 37.35Q138.10 35.50 138.10 30.40Q138.10 26.20 141 24Q143.90 21.80 148.40 21.80Q149.60 21.80 151.35 22.05L160.75 21.80L160.65 23.70L155.20 23.70Q157.95 25.75 157.95 29.88Q157.95 34 155.20 36.23Q152.45 38.45 148.10 38.45Q145.30 38.45 143.45 37.95Q142.50 38.85 142.50 40.05Q142.50 41.75 144.38 42.50Q146.25 43.25 148.80 43.60Q154.45 44.35 156.95 45.70Q160.55 47.70 160.55 51.85Q160.55 56 156.60 58Q153.60 59.50 149.35 59.50Q145.10 59.50 142.80 58.85Q136.75 57.10 136.75 52.35Q136.75 47.60 142.10 44.30Q140 42.75 140 40.70Q140 38.65 141.80 37.35M157.30 51.80Q157.30 48.55 153 47.30Q151.80 46.95 148.70 46.45Q145.60 45.95 143.85 45.25Q140 48.45 140 51.45Q140 52.75 140.40 53.60Q140.80 54.45 141.80 55.10Q144 56.60 148.50 56.60Q154.40 56.60 156.50 54.10Q157.30 53.15 157.30 51.80M154.55 29.75Q154.55 24.45 148.25 24.45Q145.25 24.45 143.30 25.82Q141.35 27.20 141.35 30.02Q141.35 32.85 142.75 34.33Q144.15 35.80 147.47 35.80Q150.80 35.80 152.67 34.20Q154.55 32.60 154.55 29.75Z"/></g></g></g></svg>